<?xml version="1.0" encoding="UTF-8"?>
<svg id="Layer_1" xmlns="http://www.w3.org/2000/svg" version="1.1" viewBox="0 0 1123.09 369.25">
  <!-- Generator: Adobe Illustrator 29.5.1, SVG Export Plug-In . SVG Version: 2.1.0 Build 141)  -->
  <defs>
    <style>
      .st0 {
        fill: #77cbcd;
      }

      .st1 {
        fill: #2a2a2a;
      }
    </style>
  </defs>
  <path class="st0" d="M887.89,129.15c-26.73,0-48.4,21.46-48.4,47.93v64.08h95.68c26.73,0,48.4-21.46,48.4-47.94v-64.08h-95.68ZM958.9,157.02v29.64c0,17.65-14.44,31.96-32.27,31.96h-57.11c-2.97,0-5.38-2.38-5.38-5.33v-29.64c0-17.65,14.45-31.96,32.27-31.96h57.11c2.97,0,5.38,2.38,5.38,5.33h0Z"/>
  <path class="st0" d="M788.71,184.99c-.08.12-.16.24-.24.36-.03.05-.06.09-.1.13.12-.16.23-.32.34-.49Z"/>
  <path class="st0" d="M817.58,170.25v70.27h-20.89v-33.71c-19.48,25.18-42.18,33.81-63.63,33.81h-59.57s0-69.4,0-69.4c0-23.54,19.26-42.61,43.02-42.61h101.06v22.54h-87.15c-17.82,0-32.27,14.31-32.27,31.96v34.97h34.91c17.4,0,35.82-6.94,51.69-27.15h-38.11v-20.68h38.1v14.51c0,1.89,2.34,2.69,3.56,1.34.02-.03.05-.06.07-.09.04-.04.07-.08.1-.13.08-.12.16-.24.24-.36.04-.05.08-.11.11-.16.58-.85,1.16-1.72,1.73-2.62.09-.14.18-.28.27-.42.4-.61.78-1.24,1.17-1.87.31-.5.61-1.01.91-1.52,1.23-2.07,2.44-4.24,3.62-6.52.37-.71.74-1.43,1.1-2.16h19.96Z"/>
  <path class="st1" d="M595.76,158.15h-48.17c-8.73,0-12.68,4.66-12.68,14.08v24.79c0,9.31,3.95,14.08,12.68,14.08h48.17c8.61,0,12.57-4.77,12.57-14.08v-24.79c0-9.42-3.96-14.08-12.57-14.08h0Z"/>
  <path class="st1" d="M170.19,123.67c-16.93,0-30.66,13.73-30.66,30.66v91.24h477.66c16.94,0,30.66-13.73,30.66-30.66v-91.24H170.19ZM266.44,224.01h-83.55c-13.15,0-17.92-6.28-17.92-17.8v-10.12c0-11.52,4.77-17.8,17.92-17.8h69.58v-6.05c0-9.43-4.07-14.08-12.57-14.08h-72.96v-12.92h75.87c16.17,0,23.62,8.49,23.62,25.6v53.18ZM386.57,224.01h-75.17c-15.94,0-23.62-8.61-23.62-25.6v-53.18h14.2v51.78c0,9.31,4.07,14.08,12.45,14.08h58.3v-65.86h13.85v78.78ZM503.55,158.15h-42.35v65.86h-13.96v-65.86h-42.24v-12.92h98.56v12.92ZM622.4,198.41c0,17.11-7.45,25.6-23.74,25.6h-53.99c-16.29,0-23.85-8.49-23.85-25.6v-27.58c0-17.11,7.56-25.6,23.85-25.6h53.99c16.29,0,23.74,8.49,23.74,25.6v27.58Z"/>
  <path class="st1" d="M178.93,198.41v4.42c0,6.17,2.44,9.43,8.96,9.43h64.58v-23.16h-64.58c-6.52,0-8.96,3.26-8.96,9.31h0Z"/>
</svg>