<?xml version="1.0" encoding="UTF-8"?>
<svg id="Layer_1" xmlns="http://www.w3.org/2000/svg" version="1.1" viewBox="0 0 1166.89 210.96">
  <!-- Generator: Adobe Illustrator 29.5.1, SVG Export Plug-In . SVG Version: 2.1.0 Build 141)  -->
  <defs>
    <style>
      .st0 {
        fill: #040404;
      }
    </style>
  </defs>
  <path class="st0" d="M241.48,34.98v24h-7v-24h-6v24c-2.01-.34-12.54.46-13,0-.97-.96,2.98-10.66-6-14.5-5.29-2.26-10.01-.53-14.31-1.52-.8-.19-.31-1.89-2.14-2.08-1.39-.14-5.55.15-5.55,1.6v16.5h-8v-14.5c0-1.77-5.58-1.67-7-1.5v16h-9v-24h-6v31h91v-31h-7ZM209.48,58.98h-15v-9.01c8.25.22,16.61-2.59,15,9.01Z"/>
  <path class="st0" d="M503.34,44.62c-.82-2.5-4.7-1.52-6.86-1.64v16c-1.59-.26-8.64.37-8.99,0-.18-.19.09-3.49-.47-5.03-3.32-9.05-14.95-11.34-20.55-3.48-3.99,5.62.11,10.23-9.99,8.51v-16c-1.41-.17-7-.27-7,1.5v14.5h-14v-16.5c0-3.39-13.36,1.62-14.71,2.28-7.74,3.76-8.56,15.22-.99,19.42,8.8,4.89,34.06-.22,45.16,1.84,3.3.62,4.83,3.75,10.02,4.03,6.84.37,9.46-4.07,10.02-4.07h18.5c-.99-5.53,1.42-16.63-.14-21.36ZM428.48,49.98v9c-10.85,1.72-10.18-10.05,0-9ZM479.24,62.75c-4.34,3.87-12.93-4.15-6.69-9.22,5.82-4.74,10.88,5.47,6.69,9.22Z"/>
  <path class="st0" d="M327.97,42.99c-8.3-.94-9.28,3.36-8.48-8.01-1.89-.02-6.38-.53-7.01,1.5-1.47,4.75,1.09,16.84,0,22.5-2.63.66-8-.25-8-3.5v-16.5c-8.94-1.55-4.98,2.98-5.99,4.01-.2.21-4.07-.21-5.42.08-2.76.58-9.59,3.05-9.59,6.41v14.5c-12.87,1.48-12.6-2.71-11.99-14.01h-7.01c.16,5.72-1.37,14.66,4.01,18.5.77.55,5.92,2.51,6.49,2.51h14.5v-17.5c0-3.68,6.23-4,9.01-3.5.2,4.54-1.22,9.57,2.47,13.02.55.51,4.73,2.98,5.02,2.98h34.5v-15.5c0-4.34-8.94-7.08-12.51-7.49ZM334.48,58.98h-15v-9.01c8.25.22,16.61-2.59,15,9.01Z"/>
  <path class="st0" d="M898.5,109.48c12.9-6.62,9.35-24.2-4.52-26.5-5.11-.85-12.13.62-17.5,0v41h9v-14c8.18-1.02,11.33,16.28,14.99,18.51,2.1,1.28,6.49.14,9.01.48l-10.98-19.49ZM896.25,101.74c-1.96,1.97-8.02,1.05-10.77,1.24v-12c6.81-2.65,16.84,4.66,10.77,10.76Z"/>
  <path class="st0" d="M131.48,58.97h-7s0-16.49,0-16.49c0-3.57-13.5,1.63-15.36,2.64-6.43,3.48-7.65,13.03-2.16,17.88.59.52,4.73,2.98,5.02,2.98h39.5v-23c-11.21-1.19-23.43,2.44-20,15.99ZM117.48,49.98v9c-10.85,1.72-10.18-10.05,0-9ZM144.42,50.04l.06,8.95c-10.37,1.9-9.38-10.43-.06-8.95Z"/>
  <path class="st0" d="M538.48,58.98h22c3.02-14.32-16.95-.56-17.8-11.76-.11-1.46,4.41-11.73,4.96-12.08,1.33-.83,5.89.22,7.84-.16l-4.99,9.98c16.34-2.2,18.12,7.09,17,21.01h-36v-31c1.41-.17,7-.27,7,1.5v22.5Z"/>
  <path class="st0" d="M381.48,42.98v16h-14v-16c-21.16-4.72-29.81,20.59-7,23.01-1.35,4.21-9.65-.26-10.99,1,.21,7.34,2.95,7.62,9.55,7.03,9.68-.86,7.79-8.04,8.44-8.04h20v-23h-6ZM361.49,58.98c-11.06,1.82-10.95-10.86,0-9v9Z"/>
  <path class="st0" d="M982.48,82.98v15c4.31-3.65,11.1-5.03,15.99-1.49.94.68,4.01,5.39,4.01,5.99v21.5h-8v-18.5c0-3.83-12-5.91-12,2v16.5h-8v-39.5c0-1.93,6.38-1.59,8-1.5Z"/>
  <path class="st0" d="M1037.45,108.6c-1.5-19.71-33.43-19.63-29.87,4.79,1.81,12.47,20.44,15.7,27.9,6.08-5.79-6.06-8.91-.88-14.24-1.69-2.47-.37-5.28-2.24-5.76-4.8h20.5c1.4,0,1.56-3.11,1.47-4.38ZM1015.48,106.98c1.83-7.47,11.98-7.19,14,0h-14Z"/>
  <path class="st0" d="M803.57,112.39c1.65,13,19.95,16.98,27.89,7.09-5.77-7.51-15.65,4.08-18.98-6.5h21c2.83-24.34-32.97-24.75-29.91-.59ZM811.48,106.98c1.7-7.06,12.54-7.18,14,0h-14Z"/>
  <path class="st0" d="M736.12,84.05c-1.29.23-17.44,16.63-18.66,18.41-.56.81-1.42,1.05-.93,2.46,3.02,1.39,18.58,18.29,20.32,17.99l19.62-19.43-20.35-19.43ZM742.49,111.98c-6.46-1.29-3.09,3.08-4.01,4.01h-3.99c1.28-6.46-3.09-3.1-4.02-4.01v-4c6.47,1.29,3.1-3.08,4.02-4.01h3.99c-1.28,6.46,3.08,3.1,4.01,4.01v4ZM736.85,96.05c-2.56-.44-8.72,11.3-14.37,7.92,1.8-2.2,12.73-14.21,14.37-13.92,1.27,1.33,14.06,12.69,12.63,13.92-5.45,2.6-10-7.46-12.63-7.92Z"/>
  <path class="st0" d="M923.23,94.22c-21.54,1.21-17.78,35.81,5.07,30.07,17.95-4.51,12.72-31.06-5.07-30.07ZM925.93,116.99c-10.69,1.77-12.62-13.86-2.71-14.8,10.28-.97,10.36,13.54,2.71,14.8Z"/>
  <rect class="st0" x="648.48" y="11.98" width="3" height="187"/>
  <path class="st0" d="M224.99,96.97c-1.3-1.16-7.65-3.99-9.01-3.99h-14.5v31h16.5c.4,0,4.72-2.04,5.46-2.55,7.51-5.09,8.29-18.46,1.55-24.46ZM208.48,117.98v-18c19.23-3.44,18.55,20.51,0,18Z"/>
  <path class="st0" d="M251.48,175.98c-1.45-1.44-6.75-.75-7.01-1-.83-.78-.03-21.9.94-22.57,3.27-2.25,5.91-.23,5.56,3.57,2.06-5.94,12.05-5.83,14-.01,2.08-6.93,15.5-4.2,15.5,1.5v17.5h-7v-15.5c0-2.04-7-2.04-7,0v15.5h-7v-14.5c0-4.52-8-2.15-8,0v15.5Z"/>
  <path class="st0" d="M341.48,94.48c.63-2.03,5.11-1.52,7-1.5-.9,13.6-.6,13.89,13,13.01v-13.01s6.99,0,6.99,0v31h-7.01s-.57-12.02-.57-12.02h-12.43s.01,12.02.01,12.02h-7.01c0-5.72-1.15-25.81,0-29.51Z"/>
  <path class="st0" d="M125.01,93.95c-1.43-1.46-8.88-1.49-10.54-.49-2.6,1.56-8.4,26.29-10.99,30.51,9.97,2.69,7.55-5.56,9.1-6.89.53-.45,13.28-.44,13.8.01.63.53.89,6.58,1.15,6.84.53.51,6.4-.25,7.95.04l-10.47-30.02ZM115.49,110.97c-.49-.45,2.02-9.38,2.76-10.72.48-.88.79-2.73,2.22-1.27.44.44,2.57,10.27,3.01,11.99h-7.99Z"/>
  <path class="st0" d="M786.48,115.98h15v8h-24v-39.5c0-2.14,9-2.14,9,0v31.5Z"/>
  <path class="st0" d="M432.98,104.98l-.5-4.01c-1.6.07-4.55-.5-5.56.95-.85,1.2-.92,27.52-.3,29.42.82,2.49,4.72,1.53,6.87,1.64v-11c8.31,5.87,17.73,2.88,18.78-7.79,1.12-11.44-11.45-19.65-19.29-9.21ZM439.88,118.97c-7.77.73-8.61-11.58-1.65-12.83,8.51-1.54,9.6,12.08,1.65,12.83Z"/>
  <path class="st0" d="M300.07,100.04c-3.12.13-4.78,2.59-7.58,2.93v-10c-1.89-.01-6.38-.52-7.01,1.51-1.89,6.11,1.42,22.22,0,29.5,3.62-.27,6.93,1.64,6.01-3,20.24,16.79,27.58-21.72,8.58-20.94ZM300.79,118.8c-9.21,2.84-11.25-11.26-3.56-12.66,8.45-1.54,8.71,11.07,3.56,12.66Z"/>
  <path class="st0" d="M125.34,145.12c-.54-.35-11.17-.35-11.72,0-1.32.85-7.91,26.36-10.14,29.85,2.01-.21,5.39.64,7.04-.45,1.76-1.16,1.3-6.26,2.57-6.6,2.38-.64,11.95-.43,13.23,1.72,2.89,4.79-1.69,6.38,9.16,5.33-2.23-3.49-8.81-29-10.14-29.85ZM123.48,161.97h-7.99c-.1-1.7,2.23-13.07,4.98-10.99.46.35,3.42,10.6,3.01,10.99Z"/>
  <path class="st0" d="M158.99,101.98c-5.57-3.72-8.25-1.1-13.5.99v-9.99c-1.89-.02-6.38-.53-7.01,1.5-1.89,6.11,1.42,22.22,0,29.5,3.56-.18,6.42,1.5,6.5-3,13.66,13.83,27.04-10.31,14.01-19ZM148.48,118.48c-7.55-3.64.2-17.47,6.75-11.23,4.68,4.46.87,14.9-6.75,11.23Z"/>
  <path class="st0" d="M858.48,100.97c-2.06-.24-5.09,2.78-6.49,2.67-1.1-.08-2.44-2.29-4-2.33-.9-.02-3.48,1.61-3.49,2.17-.06,3.19,16.46,2.15,14.96,13.91-1.23,9.63-19.94,9.56-23.51,2.61-1.2-2.33,3.67-4.75,5.21-4.84,2.07-.12,3.87,3.72,7.6,2.66,8.36-2.36-5.77-5.91-7.63-7-16-9.35,11.09-26,17.35-9.87Z"/>
  <path class="st0" d="M952.72,104.22c-2.65,2.62-2.08,10.79,2.72,12.31,6.38,2.02,7.64-2.72,9.37-2.43.31.05,5.46,2.68,5.64,2.94,2.35,3.37-7.68,7.75-10.45,8-18.14,1.63-23.8-23.54-7.48-29.51,6.44-2.36,14.94-.87,17.98,5.94-5.54,7.45-12.16-2.79-17.77,2.76Z"/>
  <path class="st0" d="M1048.52,102.04c-2.53,3.82,8.48,5.03,10.89,6.52,11.41,7.02-3.9,23.55-16.86,13.86-2.47-1.85-4.4-3.06-1.43-5.28,5.95-4.43,5.4.32,8.9.88,3.66.59,6.56-2.46,3.19-4.26-4.92-2.63-12.25-1.71-12.78-9.28-.87-12.36,15.73-12.33,22.04-4.98,0,.77-4.88,3.9-5.93,4.05-1.22.18-6.18-4.27-8.01-1.5Z"/>
  <path class="st0" d="M205.48,144.98l1,8.99c-.71.67-11.81-6.96-17.19,3.31-6.66,12.7,7.01,25.97,17.7,14.7.21,4.08,1.98,3.05,5.49,3v-30h-7ZM203.49,169.48c-7.47,3.61-11.8-6.45-6.75-11.23,6.61-6.26,14,7.73,6.75,11.23Z"/>
  <path class="st0" d="M233.48,94.48c.63-2.03,5.11-1.52,7-1.5v11c1.6.06.99-1.85,2.65-2.83,4.4-2.59,12.35.63,12.35,5.33v17.5h-7v-15.5c0-1.73-8-3.05-8,1v14.5h-7c0-5.72-1.15-25.8,0-29.5Z"/>
  <path class="st0" d="M290.38,152.08c.66.57,3.85,14.59,4.11,16.9,2.6.28,1.59,0,2.02-1.47.84-2.85,2.36-13.12,3.45-14.56.94-1.25,6.81-2.23,6.48.47-.49,4.12-5.73,24.42-7.53,27.49-2.89,4.91-8.55,4.19-13.44,4.07.2-1.24-.3-5.71,0-6.01.44-.44,7.49,1.38,9-2.51.24-3.01-3.01-.11-4.84-3.14-.54-.89-5.94-18.4-6.14-19.88-.33-2.57,6.6-1.61,6.88-1.36Z"/>
  <path class="st0" d="M563.35,101.11c1.45.94,2.67,15.47,6.12,16.87,2.21-6.55.16-19.5,10.01-16.99-1.93,6.04-4.75,27.24-9,30.49-2.27,1.73-10.74,2.81-11.6.01-2.16-7,7.06-2.86,8.6-6.02,1.22-2.51-3.09-.62-4.11-2.07s-6.08-18.09-6.78-21.03c-.57-2.41,6.26-1.58,6.77-1.25Z"/>
  <path class="st0" d="M396.03,103.93c-11.56-12.44-31.09,5.83-19.21,17.71,11.17,11.18,31.04-4.99,19.21-17.71ZM388.79,118.79c-9.23,2.83-11.24-11.25-3.57-12.65,8.42-1.54,9.29,10.9,3.57,12.65Z"/>
  <path class="st0" d="M217.58,166.39c1.66,12.28,18.83,13.21,22.9,2.08-7.17-3.09-12.75,8.09-17-2.49h17c2.7-19.08-25.63-19.76-22.9.41ZM233.48,161.97l-8.49.02c-1.89-6.64,9.17-7.06,8.49-.02Z"/>
  <path class="st0" d="M489.48,100.97v6.02c1.05,1.07,12.5-2.47,12,2.98-7.79-2.81-19.98,4.94-12.73,12.76,5.1,5.51,10.24-.23,13.26-.76.37-.06,1.66,3.87,6.47,2.01v-15.5c0-8.44-13.22-8.11-19-7.51ZM493.93,117.96c-2.37-4.96,6.95-4.6,7.56-3.98,2.54,2.61-4.82,9.71-7.56,3.98Z"/>
  <path class="st0" d="M261.48,100.98c-1.5,8.8,6.14,5.46,12.01,6v3c-22.57-3.56-15.06,24.42,1.5,11,.21,4.08,1.98,3.05,5.49,3v-17.5c0-6.58-14.65-5.79-19-5.5ZM266.92,119.04c-2-5.52,2.36-5.4,6.57-5.06,1.25,5.14-1.97,7.43-6.57,5.06Z"/>
  <path class="st0" d="M174.48,100.98v14.5c0,4.4,8,3.33,8,1v-15.5h7v23c-3.51.05-5.29,1.08-5.5-3-15.56,13.25-17.71-8.43-16.51-20.01h7.01Z"/>
  <path class="st0" d="M165.6,152.1c-.23.19-1.35,5.65-1.11,5.87,4.43.54,10.75-1.93,12.99,3-17.7-4.26-20.3,17.98-3.69,14.78,3.38-.66,2.09-3.3,4.18-2.78,1.27,3.08,2.5,2.68,5.51,3.01v-18.5c0-5.28-16.01-7-17.88-5.38ZM172.99,171.08c-4.45.07-4.71-5.01-1.86-5.95,7.89-2.62,7.75,5.86,1.86,5.95Z"/>
  <path class="st0" d="M422.48,107.98c-2-.2-4.4.4-6.3-.01-.88-.19-3.68-6.37-7.68-.48,3.25,3.88,11.07,1.24,13.46,6.51,5.45,12.03-17.23,15.29-20.46,4.47-.57-1.9.35-1.31,1.47-1.48,6.67-1,5.13,2.45,8.23,2.83,2.69.33,7.1-.75,5.24-3.77-.85-1.37-10.11,0-12.84-4.67-7.01-12.05,17.54-16.15,18.88-3.4Z"/>
  <path class="st0" d="M159.48,160.98c-5.88,1.9-6.32-3.52-10.68-3.66-5.84-.19-5.52,10.58-2.33,12.17,5.24,2.61,7.84-5.46,14.01-2.5-5.65,16.33-27.2,9.83-22.53-8.04,2.84-10.86,22.07-9.88,21.53,2.02Z"/>
  <path class="st0" d="M548.49,94.98c1.41,1.43-3.72,8.04,6,6v5.01c-1.25.23-5.68-.34-6.01-.01-.44.43-.18,11.6.58,12.12,3.44,2.31,6.73-2.16,5.42,6.89-17.12.05-10.87-8.09-12.93-18.45-.24-1.19-2.92.09-3.14-1.09-1.2-6.46,2.89-3.76,3.14-5s-.44-5.09-.07-5.46c.25-.25,6.76-.25,7.01,0Z"/>
  <path class="st0" d="M526.48,65.98h-20v-7h14c2.52-10.8-5.85-7.93-7-9-.33-.3.22-5.65,0-7,4.23-.58,13,2.74,13,7.5v15.5Z"/>
  <path class="st0" d="M477.49,94.98c-.74,7.58.13,6.1,7,6v5.01c-1.37.24-6.66-.36-7.01-.01-.39.39-.16,9.68.5,11.01,1.99,4.05,7.86-.82,6.5,5.49-.95,4.37-9.44,1.79-11.47-.52-3.11-3.55-.69-15.2-1.52-15.98-.37-.34-3.66.36-4.02.01-.18-.17-.18-4.84,0-5.01.36-.34,3.66.36,4.02.01,1.36-1.3-3.67-8.09,6-6.01Z"/>
  <path class="st0" d="M520.48,92.98v31h-6v-24.5c0-.4-5.12-2.21-3-6.5h9Z"/>
  <rect class="st0" x="572.48" y="38.98" width="7" height="27"/>
  <path class="st0" d="M323.48,100.98v23h-7v-18c0-.39-4.67,1.79-3-5h10Z"/>
  <path class="st0" d="M464.48,100.98v23h-7v-18c0-.39-4.67,1.79-3-5h10Z"/>
  <path class="st0" d="M534.48,100.98v23c-11.22,2.62-5.65-10.9-6.93-17.45-.15-.76-4.96.36-3.07-5.55h10Z"/>
  <rect class="st0" x="393.48" y="38.98" width="6" height="27"/>
  <path class="st0" d="M434.36,38.86c-.36.58-2.98.91-3.94.71-2.27-.48-1.79-3.97-3.92-2.56-.23.15.33,3.34-4.05,2.52-3.62-.68-2.48-6.45.56-6.62,2.16-.12,3.14,1.74,4.17,1.91,1.35.23,2.98-2.65,5.69-1.77,1.78.58,2.23,4.62,1.49,5.81Z"/>
  <path class="st0" d="M463.33,92.13c3.1,1.97-.57,9.86-5.43,5.94s1.72-8.3,5.43-5.94Z"/>
  <path class="st0" d="M322.34,92.12c3.11,1.9-1.62,10.75-5.96,5.43-3.18-3.9,2.32-7.65,5.96-5.43Z"/>
  <path class="st0" d="M529.15,92.12c6.35-2.15,6.98,5.49,2.63,6.71-5.13,1.44-6.42-5.43-2.63-6.71Z"/>
  <path class="st0" d="M578.48,29.99l-3,3.99c3.45-.04,4.59-.92,4.01,3-10.62,2.2-10.99-7.73-1.01-6.99Z"/>
  <path class="st0" d="M115.48,34.98c1.09.38,8.89-6.12,8.09,2.51-.45,4.78-6.7.16-8.09.49-2.86-.06-2.73-2.32,0-3Z"/>
  <path class="st0" d="M398.48,29.99c2.16,1.69-4.05,2.23-2,3.99.72.62,4.6-1.39,3.99,1.49-1.97,2.47-5.31,1.35-7.99,1.51-.43-.43.4-6.4,1.15-6.86.56-.34,4.66-.28,4.85-.13Z"/>
  <path class="st0" d="M331.49,39.98c-1.77-.13-4.56.5-6.03-.47-4.7-3.11,7.6-11.11,6.03.47Z"/>
  <path class="st0" d="M147.49,39.98c-11.29,2.42-5.9-9.18-.93-5.57,1.4,1.02.88,3.98.93,5.57Z"/>
  <path class="st0" d="M199.62,39.85c-2.9-1.81,1.06-8.18,4.92-5.43,3.55,2.53-1.23,7.73-4.92,5.43Z"/>
  <path class="st0" d="M115.48,34.98v3c-.9.21-6.66,4.63-6.07-2.48.48-5.8,5.69-.65,6.07-.52Z"/>
  <path class="st0" d="M379.59,73.88c-2.11-3.38,3.25-7.1,5.45-3.96,3.16,4.51-3.93,6.38-5.45,3.96Z"/>
  <path class="st0" d="M452.41,73.91c-1.23,1.74-8.77.79-5.48-3.98,2.32-3.36,7.6.98,5.48,3.98Z"/>
  <path class="st0" d="M489.57,73.89c-2.71-3.79,4.83-7.26,5.9-3.38,1,3.59-4.41,5.46-5.9,3.38Z"/>
  <path class="st0" d="M296.18,69.09c3.64-.97,6.09,4.57,1.61,5.77-3.44.93-5.77-4.67-1.61-5.77Z"/>
  <path class="st0" d="M182.39,73.89c-1.49,2.08-6.9.22-5.9-3.38,1.08-3.88,8.62-.42,5.9,3.38Z"/>
  <path class="st0" d="M279.45,78.95c-1,1.46-7.02.27-5.96-3.45s8.58-.37,5.96,3.45Z"/>
  <path class="st0" d="M456.01,68.99c3.49-.99,6.48,4.59,1.8,5.85-4.16,1.12-4.27-5.15-1.8-5.85Z"/>
  <path class="st0" d="M281.49,78.98c-2.84-2.81,4.67-7.95,5.99-3.48,1.14,3.86-5.27,4.19-5.99,3.48Z"/>
  <path class="st0" d="M169.57,73.89c-2.95-4.06,5.1-7.15,5.84-2.28.44,2.83-4.58,4.02-5.84,2.28Z"/>
  <path class="st0" d="M502.39,73.89c-1.26,1.73-6.28.55-5.84-2.28.75-4.86,8.8-1.77,5.84,2.28Z"/>
</svg>